<?xml version="1.0" encoding="UTF-8" standalone="no"?>
<!-- Created with Inkscape (http://www.inkscape.org/) -->

<svg
   width="30mm"
   height="30mm"
   viewBox="0 0 30 30"
   version="1.1"
   id="svg5"
   xmlns="http://www.w3.org/2000/svg"
   xmlns:svg="http://www.w3.org/2000/svg">
  <defs
     id="defs2" />
  <g
     id="layer1">
    <path
       id="path31"
       style="fill:#000000;stroke-width:3.77953;stroke-linecap:round;stroke-linejoin:round;stroke-dashoffset:75.5906"
       d="M 101.35938 -1.4140625 L 92.623047 12.958984 A 56.69291 56.69291 0 0 0 56.693359 0 A 56.69291 56.69291 0 0 0 9.4296875 25.429688 L 16.277344 32.277344 A 47.244093 47.244093 0 0 1 56.693359 9.4492188 A 47.244093 47.244093 0 0 1 85.962891 19.757812 L 70.951172 28.648438 L 108.70312 36.423828 L 101.35938 -1.4140625 z M 5.3085938 76.447266 L 12.652344 114.28516 L 20.984375 100.57617 A 56.69291 56.69291 0 0 0 56.693359 113.38672 A 56.69291 56.69291 0 0 0 103.9707 87.970703 L 97.109375 81.109375 A 47.244093 47.244093 0 0 1 56.693359 103.9375 A 47.244093 47.244093 0 0 1 27.347656 93.529297 L 43.060547 84.222656 L 5.3085938 76.447266 z "
       transform="scale(0.26458333)" />
  </g>
</svg>
